<svg width="49" height="48" viewBox="0 0 49 48" fill="none"
    xmlns="http://www.w3.org/2000/svg">
    <path d="M27.6411 23.3333H29.6411V29L33.4544 31.2533L32.4544 32.88L27.6411 30V23.3333ZM28.9744 19.3333C29.8944 19.3333 30.8011 19.4667 31.6411 19.72V13.6L27.6411 15.1467V19.4267C28.0811 19.3333 28.5211 19.3333 28.9744 19.3333ZM38.3077 28.6667C38.3077 31.142 37.3244 33.516 35.5741 35.2663C33.8237 37.0167 31.4498 38 28.9744 38C24.9744 38 21.5077 35.44 20.2011 31.8667L18.3077 31.2L11.1877 33.96L10.9744 34C10.7976 34 10.628 33.9298 10.503 33.8047C10.378 33.6797 10.3077 33.5101 10.3077 33.3333V13.1733C10.3077 12.8667 10.5077 12.6267 10.7877 12.5333L18.3077 10L26.3077 12.8L33.4277 10.04L33.6411 10C33.8179 10 33.9875 10.0702 34.1125 10.1953C34.2375 10.3203 34.3077 10.4899 34.3077 10.6667V21C36.7211 22.6667 38.3077 25.4933 38.3077 28.6667ZM19.6411 28.6667C19.6411 24.9467 21.8144 21.7333 24.9744 20.2267V15.16L19.6411 13.2933V28.84V28.6667ZM28.9744 22C27.2063 22 25.5106 22.7024 24.2604 23.9526C23.0101 25.2029 22.3077 26.8986 22.3077 28.6667C22.3077 30.4348 23.0101 32.1305 24.2604 33.3807C25.5106 34.631 27.2063 35.3333 28.9744 35.3333C30.7425 35.3333 32.4382 34.631 33.6885 33.3807C34.9387 32.1305 35.6411 30.4348 35.6411 28.6667C35.6411 26.8986 34.9387 25.2029 33.6885 23.9526C32.4382 22.7024 30.7425 22 28.9744 22ZM12.9744 14.6133V30.4133L16.9744 28.8667V13.2667L12.9744 14.6133Z" fill="currentColor"/>
</svg>
