<svg width="53" height="48" viewBox="0 0 53 48" fill="none"
    xmlns="http://www.w3.org/2000/svg">
    <path fill-rule="evenodd" clip-rule="evenodd" d="M13.2308 12.1538H39.0769C39.3625 12.1538 39.6365 12.2673 39.8384 12.4693C40.0404 12.6712 40.1538 12.9452 40.1538 13.2308V22.9231H12.1538V13.2308C12.1538 12.9452 12.2673 12.6712 12.4693 12.4693C12.6712 12.2673 12.9452 12.1538 13.2308 12.1538ZM12.1538 25.0769V34.7692C12.1538 35.0548 12.2673 35.3288 12.4693 35.5307C12.6712 35.7327 12.9452 35.8462 13.2308 35.8462H39.0769C39.3625 35.8462 39.6365 35.7327 39.8384 35.5307C40.0404 35.3288 40.1538 35.0548 40.1538 34.7692V25.0769H12.1538ZM10 13.2308C10 12.3739 10.3404 11.5522 10.9463 10.9463C11.5522 10.3404 12.3739 10 13.2308 10H39.0769C39.9338 10 40.7555 10.3404 41.3614 10.9463C41.9673 11.5522 42.3077 12.3739 42.3077 13.2308V34.7692C42.3077 35.6261 41.9673 36.4478 41.3614 37.0537C40.7555 37.6596 39.9338 38 39.0769 38H13.2308C12.3739 38 11.5522 37.6596 10.9463 37.0537C10.3404 36.4478 10 35.6261 10 34.7692V13.2308Z" fill="currentColor"/>
</svg>
